{"title":"End of Watch 2012 DVDRip XviD-Lum1x-","uid":7816958,"size":1472321536,"categoryP":"video","categoryS":"movies","magnet":"?xt=urn:btih:dbbfadbe79a879114bbb6c4fa14b317a412110bc&amp;dn=End+of+Watch+2012+DVDRip+XviD-Lum1x-&amp;tr=udp%3A%2F%2Ftracker.openbittorrent.com%3A80&amp;tr=udp%3A%2F%2Fopen.demonii.com%3A1337&amp;tr=udp%3A%2F%2Ftracker.coppersurfer.tk%3A6969&amp;tr=udp%3A%2F%2Fexodus.desync.com%3A6969","seeders":20,"leechers":0,"uploader":"Acesn8s","files":-1,"time":1352696240,"description":"Format                                   : AVI\n\nFormat/Info                              : Audio Video Interleave\n\nFile size                                : 1.37 GiB\n\nDuration                                 : 1h 44mn\n\nOverall bit rate                         : 1 885 Kbps\n\nWriting application                      : VirtualDubMod 1.5.10.2 (build 2542/release)\n\nWriting library                          : VirtualDubMod build 2542/release\n\n\n\nVideo\n\nID                                       : 0\n\nFormat                                   : MPEG-4 Visual\n\nFormat profile                           : Advanced Simple@L5\n\nFormat settings, BVOP                    : 2\n\nFormat settings, QPel                    : No\n\nFormat settings, GMC                     : No warppoints\n\nFormat settings, Matrix                  : Default (MPEG)\n\nCodec ID                                 : XVID\n\nCodec ID/Hint                            : XviD\n\nDuration                                 : 1h 44mn\n\nBit rate                                 : 1 491 Kbps\n\nWidth                                    : 720 pixels\n\nHeight                                   : 400 pixels\n\nDisplay aspect ratio                     : 16:9\n\nFrame rate                               : 25.000 fps\n\nColor space                              : YUV\n\nChroma subsampling                       : 4:2:0\n\nBit depth                                : 8 bits\n\nScan type                                : Progressive\n\nCompression mode                         : Lossy\n\nBits/(Pixel*Frame)                       : 0.207\n\nStream size                              : 1.08 GiB (79%)\n\nWriting library                          : XviD 1.2.1 (UTC 2008-12-04)\n\n\n\nAudio\n\nID                                       : 1\n\nFormat                                   : AC-3\n\nFormat/Info                              : Audio Coding 3\n\nMode extension                           : CM (complete main)\n\nFormat settings, Endianness              : Big\n\nCodec ID                                 : 2000\n\nDuration                                 : 1h 44mn\n\nBit rate mode                            : Constant\n\nBit rate                                 : 384 Kbps\n\nChannel(s)                               : 6 channels\n\nChannel positions                        : Front: L C R, Side: L R, LFE\n\nSampling rate                            : 48.0 KHz\n\nBit depth                                : 16 bits\n\nCompression mode                         : Lossy\n\nStream size                              : 286 MiB (20%)\n\nAlignment                                : Split accross interleaves\n\nInterleave, duration                     : 40 ms (1.00 video frame)\n\nInterleave, preload duration             : 500 ms[/color][/b]\n &lt;a href=&quot;\nhttp://www.shotpix.com/images/83452541811964950307.png&quot; rel=&quot;nofollow&quot; target=&quot;_NEW&quot;&gt;\nhttp://www.shotpix.com/images/83452541811964950307.png&lt;/a&gt; &lt;a href=&quot;\nhttp://www.shotpix.com/images/67977730196233291777.png&quot; rel=&quot;nofollow&quot; target=&quot;_NEW&quot;&gt;\nhttp://www.shotpix.com/images/67977730196233291777.png&lt;/a&gt;","torrent":{"xt":"urn:btih:dbbfadbe79a879114bbb6c4fa14b317a412110bc","amp;dn":"End+of+Watch+2012+DVDRip+XviD-Lum1x-","amp;tr":["udp%3A%2F%2Ftracker.openbittorrent.com%3A80","udp%3A%2F%2Fopen.demonii.com%3A1337","udp%3A%2F%2Ftracker.coppersurfer.tk%3A6969","udp%3A%2F%2Fexodus.desync.com%3A6969"],"infoHash":"dbbfadbe79a879114bbb6c4fa14b317a412110bc","infoHashBuffer":{"type":"Buffer","data":[219,191,173,190,121,168,121,17,75,187,108,79,161,75,49,122,65,33,16,188]},"announce":[],"urlList":[]}}